<mxfile host="Electron" agent="Mozilla/5.0 (Windows NT 10.0; Win64; x64) AppleWebKit/537.36 (KHTML, like Gecko) draw.io/28.1.2 Chrome/138.0.7204.243 Electron/37.4.0 Safari/537.36" version="28.1.2">
  <diagram id="WwhtTuc8WgtOb9NBjief" name="Seite-1">
    <mxGraphModel dx="1426" dy="841" grid="1" gridSize="10" guides="1" tooltips="1" connect="1" arrows="1" fold="1" page="1" pageScale="1" pageWidth="827" pageHeight="1169" math="0" shadow="0">
      <root>
        <mxCell id="0" />
        <mxCell id="1" parent="0" />
        <mxCell id="m6liRVqI7k-ewaTrCBOG-1" value="&lt;b&gt;&lt;font style=&quot;font-size: 20px;&quot;&gt;Hello Meister!&lt;/font&gt;&lt;/b&gt;" style="text;html=1;align=center;verticalAlign=middle;resizable=0;points=[];autosize=1;strokeColor=none;fillColor=none;" vertex="1" parent="1">
          <mxGeometry x="195" y="33" width="150" height="40" as="geometry" />
        </mxCell>
        <mxCell id="m6liRVqI7k-ewaTrCBOG-4" value="" style="edgeStyle=orthogonalEdgeStyle;rounded=0;orthogonalLoop=1;jettySize=auto;html=1;" edge="1" parent="1" source="m6liRVqI7k-ewaTrCBOG-2" target="m6liRVqI7k-ewaTrCBOG-3">
          <mxGeometry relative="1" as="geometry" />
        </mxCell>
        <mxCell id="m6liRVqI7k-ewaTrCBOG-2" value="start" style="ellipse;whiteSpace=wrap;html=1;" vertex="1" parent="1">
          <mxGeometry x="90" y="120" width="120" height="80" as="geometry" />
        </mxCell>
        <mxCell id="m6liRVqI7k-ewaTrCBOG-6" value="" style="edgeStyle=orthogonalEdgeStyle;rounded=0;orthogonalLoop=1;jettySize=auto;html=1;" edge="1" parent="1" source="m6liRVqI7k-ewaTrCBOG-3" target="m6liRVqI7k-ewaTrCBOG-5">
          <mxGeometry relative="1" as="geometry" />
        </mxCell>
        <mxCell id="m6liRVqI7k-ewaTrCBOG-3" value="Print: What is your name?" style="rounded=1;whiteSpace=wrap;html=1;" vertex="1" parent="1">
          <mxGeometry x="90" y="240" width="120" height="60" as="geometry" />
        </mxCell>
        <mxCell id="m6liRVqI7k-ewaTrCBOG-8" value="" style="edgeStyle=orthogonalEdgeStyle;rounded=0;orthogonalLoop=1;jettySize=auto;html=1;" edge="1" parent="1" source="m6liRVqI7k-ewaTrCBOG-5" target="m6liRVqI7k-ewaTrCBOG-7">
          <mxGeometry relative="1" as="geometry" />
        </mxCell>
        <mxCell id="m6liRVqI7k-ewaTrCBOG-5" value="input : name" style="rounded=1;whiteSpace=wrap;html=1;" vertex="1" parent="1">
          <mxGeometry x="90" y="350" width="120" height="60" as="geometry" />
        </mxCell>
        <mxCell id="m6liRVqI7k-ewaTrCBOG-10" value="" style="edgeStyle=orthogonalEdgeStyle;rounded=0;orthogonalLoop=1;jettySize=auto;html=1;" edge="1" parent="1" source="m6liRVqI7k-ewaTrCBOG-7" target="m6liRVqI7k-ewaTrCBOG-9">
          <mxGeometry relative="1" as="geometry" />
        </mxCell>
        <mxCell id="m6liRVqI7k-ewaTrCBOG-7" value="print : Hello Meister name" style="rounded=1;whiteSpace=wrap;html=1;" vertex="1" parent="1">
          <mxGeometry x="90" y="460" width="120" height="60" as="geometry" />
        </mxCell>
        <mxCell id="m6liRVqI7k-ewaTrCBOG-9" value="end" style="ellipse;whiteSpace=wrap;html=1;rounded=1;" vertex="1" parent="1">
          <mxGeometry x="110" y="560" width="80" height="80" as="geometry" />
        </mxCell>
        <mxCell id="m6liRVqI7k-ewaTrCBOG-12" value="Text" style="text;html=1;align=center;verticalAlign=middle;resizable=0;points=[];autosize=1;strokeColor=none;fillColor=none;" vertex="1" parent="1">
          <mxGeometry x="435" y="98" width="50" height="30" as="geometry" />
        </mxCell>
      </root>
    </mxGraphModel>
  </diagram>
</mxfile>
